<svg xmlns="http://www.w3.org/2000/svg" width="31.627" height="27.757" viewBox="0 0 31.627 27.757">
  <g id="Group_19" data-name="Group 19" transform="translate(-1313.89 -8729.243)">
    <path id="Path_36" data-name="Path 36" d="M420.291,651.967l2.792,8.542a.906.906,0,0,0,1.437.418l8.341-6.885S424,650.585,424,650.772a28.118,28.118,0,0,1-3.708,1.195" transform="translate(901.905 8093.76)" fill="#c5b3a8"/>
    <path id="Path_37" data-name="Path 37" d="M445.729,641.869c-5.446,2.155-23.028,9.358-29.681,12.087a1.017,1.017,0,0,0,.078,1.909l7.6,2.421,2.784,8.513a.922.922,0,0,0,.711.624c.256.048.634-6.9.634-6.9s7.984,5.922,11.774,8.719a1.577,1.577,0,0,0,2.485-.968c1.13-5.816,3.951-20.358,4.914-25.329a.962.962,0,0,0-1.3-1.081" transform="translate(898.471 8087.443)" fill="#e8d3c6"/>
    <path id="Path_38" data-name="Path 38" d="M423.786,664.847c.254.048.634-6.9.634-6.9l13.119-12.324a.1.1,0,0,0-.121-.16l-17.126,10.243,2.784,8.515a.918.918,0,0,0,.711.622" transform="translate(901.905 8090.017)" fill="#ffe5d5"/>
  </g>
</svg>
