<svg id="noun-location-5355129_1" data-name="noun-location-5355129 1" xmlns="http://www.w3.org/2000/svg" width="24.203" height="29.287" viewBox="0 0 24.203 29.287">
  <path id="Path_3444" data-name="Path 3444" d="M25.54,11.864A4.459,4.459,0,1,0,30,16.323,4.461,4.461,0,0,0,25.54,11.864Zm0,1.272a3.182,3.182,0,1,1-3.182,3.182A3.182,3.182,0,0,1,25.54,13.136Z" transform="translate(-13.438 -6.767)" fill="#60311b" fill-rule="evenodd"/>
  <path id="Path_3445" data-name="Path 3445" d="M15.7,22.357l-.049-.071a15.333,15.333,0,0,1-3.024-8.209,9.551,9.551,0,0,1,19.1,0,15.32,15.32,0,0,1-3.024,8.209l-.049.071h1.163a1.908,1.908,0,0,1,1.812,1.3L34.182,31.3a1.907,1.907,0,0,1-1.812,2.511H11.99a1.919,1.919,0,0,1-1.55-.791,1.9,1.9,0,0,1-.262-1.719l2.549-7.641a1.908,1.908,0,0,1,1.812-1.3Zm12.029,1.277a35.374,35.374,0,0,1-4.3,4.628,1.907,1.907,0,0,1-2.5,0,34.534,34.534,0,0,1-4.3-4.628h-2.09a.639.639,0,0,0-.606.437l-2.549,7.641a.63.63,0,0,0,.087.573.641.641,0,0,0,.518.262H32.365a.649.649,0,0,0,.519-.262.632.632,0,0,0,.087-.573l-2.549-7.641a.639.639,0,0,0-.606-.437ZM22.18,5.8a8.285,8.285,0,0,1,8.28,8.28,14.007,14.007,0,0,1-2.8,7.488A33.3,33.3,0,0,1,22.6,27.3a.638.638,0,0,1-.835,0,33.3,33.3,0,0,1-5.06-5.725,14.023,14.023,0,0,1-2.8-7.488A8.277,8.277,0,0,1,22.18,5.8Z" transform="translate(-10.079 -4.526)" fill="#60311b" fill-rule="evenodd"/>
</svg>
