<svg id="noun-language-5148441_1" data-name="noun-language-5148441 1" xmlns="http://www.w3.org/2000/svg" width="34.734" height="29.287" viewBox="0 0 34.734 29.287">
  <path id="Path_3440" data-name="Path 3440" d="M46.188,27.326a.692.692,0,1,0,0-1.384H40.094v-2.2a.692.692,0,1,0-1.384,0v2.2H32.616a.692.692,0,0,0,0,1.384h2.8a20.9,20.9,0,0,0,3.043,5.008,9.228,9.228,0,0,1-4.531,2.664.7.7,0,0,0,.149,1.377,1.006,1.006,0,0,0,.149-.015A10.6,10.6,0,0,0,39.4,33.36a10.547,10.547,0,0,0,5.179,2.991.506.506,0,0,0,.149.015.7.7,0,0,0,.149-1.377,9.251,9.251,0,0,1-4.531-2.664,21.046,21.046,0,0,0,3.043-5.008ZM39.4,31.277a19.024,19.024,0,0,1-2.455-3.951h4.926A21.393,21.393,0,0,1,39.4,31.277Z" transform="translate(-15.011 -10.77)" fill="#60311b"/>
  <path id="Path_3441" data-name="Path 3441" d="M20.765,12.821a.7.7,0,0,0-.64-.424.689.689,0,0,0-.64.424l-2.5,5.96-1.1,2.641a.694.694,0,1,0,1.28.536l.923-2.217h4.07l.93,2.217a.7.7,0,0,0,.64.424.69.69,0,0,0,.64-.96Zm-2.091,5.536,1.458-3.482,1.458,3.482Z" transform="translate(-11.814 -8.654)" fill="#60311b"/>
  <path id="Path_3442" data-name="Path 3442" d="M47.721,35.935V21.641a3.2,3.2,0,0,0-3.2-3.2H30.22a3.2,3.2,0,0,0-3.2,3.2v5.194a14.706,14.706,0,0,1-4.494,10.551l-.58.558a.686.686,0,0,0-.156.759.705.705,0,0,0,.647.439H44.529A3.214,3.214,0,0,0,47.721,35.935Zm-19.309-9.1V21.641a1.818,1.818,0,0,1,1.816-1.816h14.3a1.818,1.818,0,0,1,1.816,1.816v14.3a1.818,1.818,0,0,1-1.816,1.816H24.119A16.153,16.153,0,0,0,28.412,26.835Z" transform="translate(-12.987 -9.855)" fill="#60311b"/>
  <path id="Path_3443" data-name="Path 3443" d="M14.032,28.434H22.4a.692.692,0,0,0,0-1.384H14.032a1.818,1.818,0,0,1-1.816-1.816v-14.3a1.818,1.818,0,0,1,1.816-1.816h20.4a15.927,15.927,0,0,0-3.1,4.844.691.691,0,1,0,1.28.521,14.6,14.6,0,0,1,3.4-5l.58-.558a.686.686,0,0,0,.156-.759.705.705,0,0,0-.647-.439H14.017a3.2,3.2,0,0,0-3.2,3.2v14.3A3.228,3.228,0,0,0,14.032,28.434Z" transform="translate(-10.818 -7.726)" fill="#60311b"/>
</svg>
