<?xml version="1.0" encoding="UTF-8"?>
<svg xmlns="http://www.w3.org/2000/svg" xmlns:xlink="http://www.w3.org/1999/xlink" width="25px" height="19px" viewBox="0 0 25 19" version="1.1">
<defs>
<clipPath id="clip1">
  <path d="M 0 0 L 24.996094 0 L 24.996094 19 L 0 19 Z M 0 0 "/>
</clipPath>
</defs>
<g id="surface1">
<g clip-path="url(#clip1)" clip-rule="nonzero">
<rect x="0" y="0" width="25" height="19" style="fill:rgb(4.705882%,34.901961%,4.313725%);fill-opacity:1;stroke:none;"/>
</g>
<path style=" stroke:none;fill-rule:evenodd;fill:rgb(100%,100%,100%);fill-opacity:1;" d="M -1.566406 0 L 5.484375 0 L 5.484375 19 L -1.566406 19 Z M -1.566406 0 "/>
<path style=" stroke:none;fill-rule:evenodd;fill:rgb(100%,100%,100%);fill-opacity:1;" d="M 16.699219 8.363281 L 15.554688 8.121094 L 14.953125 9.132812 L 14.832031 7.960938 L 13.695312 7.691406 L 14.757812 7.210938 L 14.660156 6.035156 L 15.441406 6.910156 L 16.515625 6.449219 L 15.933594 7.472656 L 16.703125 8.363281 Z M 16.699219 8.363281 "/>
<path style=" stroke:none;fill-rule:evenodd;fill:rgb(100%,100%,100%);fill-opacity:1;" d="M 17.125 11.355469 C 16.632812 12.445312 15.734375 13.289062 14.625 13.703125 C 13.515625 14.117188 12.289062 14.066406 11.21875 13.558594 C 8.980469 12.507812 8.003906 9.816406 9.039062 7.542969 C 9.539062 6.410156 10.492188 5.542969 11.65625 5.15625 C 11.503906 5.285156 11.359375 5.421875 11.222656 5.5625 C 9.738281 7.230469 9.824219 9.789062 11.414062 11.351562 C 13.007812 12.910156 15.535156 12.914062 17.128906 11.355469 Z M 17.125 11.355469 "/>
</g>
</svg>
