<svg xmlns="http://www.w3.org/2000/svg" width="34.377" height="27.938" viewBox="0 0 34.377 27.938">
  <path id="Path_35" data-name="Path 35" d="M325.167,666.462a19.962,19.962,0,0,0,10.812,3.169c13.093,0,20.491-11.06,20.046-20.98A14.277,14.277,0,0,0,359.544,645a14.119,14.119,0,0,1-4.05,1.111,7.065,7.065,0,0,0,3.1-3.9,14.12,14.12,0,0,1-4.478,1.712,7.058,7.058,0,0,0-12.019,6.433,20.011,20.011,0,0,1-14.535-7.369,7.06,7.06,0,0,0,2.184,9.416,7.021,7.021,0,0,1-3.2-.883,7.061,7.061,0,0,0,5.658,7.006,7.074,7.074,0,0,1-3.184.119,7.058,7.058,0,0,0,6.588,4.9,14.178,14.178,0,0,1-10.443,2.92" transform="translate(-325.167 -641.694)" fill="#e8d3c6"/>
</svg>
