<svg xmlns="http://www.w3.org/2000/svg" width="62.282" height="55.609" viewBox="0 0 62.282 55.609">
  <g id="wallet" transform="translate(-2 -4)">
    <path id="XMLID_436_" d="M64.282,48.487v5.561a5.567,5.567,0,0,1-5.561,5.561H10.9a8.906,8.906,0,0,1-8.9-8.9V12.9A8.906,8.906,0,0,1,10.9,4h41.15a3.337,3.337,0,0,1,0,6.673H10.9a2.224,2.224,0,0,0,0,4.449H58.721a5.567,5.567,0,0,1,5.561,5.561v5.561H53.16a11.122,11.122,0,1,0,0,22.243Z" fill="#e8d3c6"/>
    <path id="XMLID_438_" d="M39.795,16V29.346H28.673a6.673,6.673,0,0,1,0-13.346Z" transform="translate(24.487 14.692)" fill="#e8d3c6"/>
  </g>
</svg>
