<svg xmlns="http://www.w3.org/2000/svg" width="52.565" height="69.008" viewBox="0 0 52.565 69.008">
  <g id="to-do-list" transform="translate(-61)">
    <path id="Path_3414" data-name="Path 3414" d="M111.793,31.779A6.016,6.016,0,0,0,107.506,30h-2.688v2.7a5.394,5.394,0,0,1-5.385,5.391H75.2A5.394,5.394,0,0,1,69.814,32.7V30h-2.7a6.07,6.07,0,0,0-6.058,6.058L61,88.893a6.062,6.062,0,0,0,6.058,6.072h40.39a6.07,6.07,0,0,0,6.058-6.058l.058-52.834a6.028,6.028,0,0,0-1.772-4.293ZM87.969,50.217h14.348a2.022,2.022,0,0,1,0,4.043H87.969a2.022,2.022,0,0,1,0-4.043Zm0,13.478h14.348a2.022,2.022,0,0,1,0,4.043H87.969a2.022,2.022,0,0,1,0-4.043Zm0,13.478h14.406a2.022,2.022,0,0,1,0,4.043H87.969a2.022,2.022,0,0,1,0-4.043ZM70.762,50.3a2.018,2.018,0,0,1,2.856,0l1.1,1.1,4.657-4.662a2.021,2.021,0,1,1,2.856,2.859l-6.085,6.092a2.018,2.018,0,0,1-2.856,0l-2.526-2.529a2.023,2.023,0,0,1,0-2.859Zm0,14.507a2.018,2.018,0,0,1,2.856,0l1.1,1.1,4.657-4.662A2.021,2.021,0,0,1,82.23,64.1l-6.085,6.092a2.018,2.018,0,0,1-2.856,0l-2.526-2.529A2.023,2.023,0,0,1,70.762,64.8Zm0,13.478a2.018,2.018,0,0,1,2.856,0l1.1,1.1,4.657-4.662a2.021,2.021,0,0,1,2.856,2.859l-6.085,6.092a2.018,2.018,0,0,1-2.856,0l-2.526-2.529A2.023,2.023,0,0,1,70.762,78.283Z" transform="translate(0 -25.957)" fill="#e8d3c6"/>
    <path id="Path_3415" data-name="Path 3415" d="M156.361,6.739a1.347,1.347,0,0,0,1.346,1.348h24.234a1.347,1.347,0,0,0,1.346-1.348V1.348A1.347,1.347,0,0,0,181.941,0H157.707a1.347,1.347,0,0,0-1.346,1.348Z" transform="translate(-82.508)" fill="#e8d3c6"/>
  </g>
</svg>
