<svg xmlns="http://www.w3.org/2000/svg" xmlns:xlink="http://www.w3.org/1999/xlink" width="317.2" height="56.074" viewBox="0 0 317.2 56.074">
  <defs>
    <clipPath id="clip-path">
      <rect id="Rectangle_40" data-name="Rectangle 40" width="317.2" height="56.074" transform="translate(67 79)" fill="#e7d3c6"/>
    </clipPath>
  </defs>
  <g id="Group_85" data-name="Group 85" transform="translate(-67 -79)" clip-path="url(#clip-path)">
    <path id="Path_3403" data-name="Path 3403" d="M109.727,117.406h6.988V98.246a5.667,5.667,0,0,1,2.386-4.613l2.661-1.878v-1.38l-12.023,8.4v18.625Z" transform="translate(34.56 9.201)" fill="#e7d3c6"/>
    <path id="Path_3404" data-name="Path 3404" d="M111.983,91v4.837a5.672,5.672,0,0,1-2.386,4.613l-2.661,1.877v1.38l12.022-8.4V89.881c0-3.021,1.219-3.8,3.867-3.8a7.384,7.384,0,0,1,4.128,1.218h.535l.9-2.7a14.7,14.7,0,0,0-6.926-1.479C115.315,83.117,111.983,85.865,111.983,91Z" transform="translate(32.302 3.33)" fill="#e7d3c6"/>
    <path id="Path_3405" data-name="Path 3405" d="M133.663,90.347a23.75,23.75,0,0,0-12.432,3.332l1.217,2.748h.474a16.607,16.607,0,0,1,9.361-3.071c3.594,0,5.77,1.38,5.77,5.073v3.494a14.356,14.356,0,0,0-8.256-2.275c-6.4,0-11.005,3.233-11.005,9.1s4.291,9.314,10.582,9.314a11.515,11.515,0,0,0,8.679-3.383v2.748h7.036V99.809c0-6.925-4.388-9.474-11.427-9.474m4.39,21.211a8.788,8.788,0,0,1-6.926,3.444c-3.071,0-5.284-1.952-5.284-5.508v-1.319c0-3.866,2.437-5.607,6.031-5.607a10.232,10.232,0,0,1,6.192,2.064v6.926Z" transform="translate(41.892 9.168)" fill="#e7d3c6"/>
    <path id="Path_3406" data-name="Path 3406" d="M145.221,95.693V90.981l-7.038,4.874v21.584h7.038V99.025a9.305,9.305,0,0,1,7.46-4.078,7.675,7.675,0,0,1,3.493.684l.472-.112V90.546a6.77,6.77,0,0,0-1.852-.211c-4.339,0-7.883,2.909-9.572,5.346" transform="translate(57.576 9.168)" fill="#e7d3c6"/>
    <path id="Path_3407" data-name="Path 3407" d="M186.665,90.347c-4.439,0-8.357,2.487-10.582,4.5-1.008-2.959-3.592-4.5-7.46-4.5-4.388,0-8.044,2.487-10.159,4.439v-3.8l-7.036,4.874v21.584h7.036V97.969c2.163-2.163,5.3-3.867,7.623-3.867s3.381,1.38,3.381,3.966v19.359h7.038V97.857c2.225-2.114,5.345-3.755,7.621-3.755s3.444,1.38,3.444,3.966v19.359h6.988V97.956c0-4.924-2.86-7.622-7.883-7.622" transform="translate(68.291 9.168)" fill="#e7d3c6"/>
    <path id="Path_3408" data-name="Path 3408" d="M185.727,96.428c0-1.9,2.013-3.121,5.557-3.121a12.631,12.631,0,0,1,7.883,2.487h.584l1.219-2.586a16.381,16.381,0,0,0-9.686-2.86c-6.875,0-11.376,3.071-11.376,7.721,0,10,16.238,7.037,16.238,13.279,0,2.324-1.952,3.755-5.707,3.755a15.161,15.161,0,0,1-9.735-3.334h-.584l-1.431,2.538a18.832,18.832,0,0,0,11.8,3.753c6.664,0,12.271-2.7,12.271-8.628,0-9.9-17.034-7.46-17.034-13.017" transform="translate(90.34 9.179)" fill="#e7d3c6"/>
    <path id="Path_3409" data-name="Path 3409" d="M208.847,90.341c-8.355,0-14.335,5.023-14.335,13.863s5.931,13.862,15.294,13.862a16.8,16.8,0,0,0,12.011-4.388l-1.742-2.113h-.584c-2.064,2.225-5.72,3.544-9.2,3.544-5.5,0-8.467-2.487-8.467-7.622V105h20.838v-.957C222.661,95.364,216.942,90.341,208.847,90.341Zm6.926,11.75H201.811v-1.007c0-5.4,2.959-7.771,7.036-7.771s6.926,2.375,6.926,7.771Z" transform="translate(103.138 9.173)" fill="#e7d3c6"/>
    <path id="Path_3410" data-name="Path 3410" d="M231.32,90.341c-4.551,0-8.306,2.536-10.531,4.5V90.975l-7.038,4.874v21.584h7.038V97.963c2.276-2.114,5.557-3.867,8.044-3.867s3.495,1.38,3.495,3.966v19.359h7.036V97.851C239.364,92.927,236.456,90.341,231.32,90.341Z" transform="translate(118.7 9.173)" fill="#e7d3c6"/>
    <path id="Path_3411" data-name="Path 3411" d="M242.711,88.294V84.987h-1.964a6.56,6.56,0,0,1-2.661,5.284l-2.35,1.741V94.25a5.669,5.669,0,0,1-2.388,4.613l-2.661,1.877v1.38l12.023-8.393V88.294Z" transform="translate(132.399 4.842)" fill="#e7d3c6"/>
    <path id="Path_3412" data-name="Path 3412" d="M248.707,113.9h-.521a7.457,7.457,0,0,1-4.079,1.169c-2.587,0-3.8-.8-3.8-3.706V98.26a5.672,5.672,0,0,1,2.386-4.613l2.661-1.877V90.39l-12.022,8.4v11.352c0,5.135,3.281,7.883,9.473,7.883a14.481,14.481,0,0,0,6.875-1.48l-.957-2.648Z" transform="translate(134.535 9.212)" fill="#e7d3c6"/>
    <path id="Path_3413" data-name="Path 3413" d="M94.391,80.094a26.939,26.939,0,0,0-20.117,44.86L67,130.1v4.973l10.32-7.2a26.938,26.938,0,0,0,37.188-38.754l7.273-5.135V79l-10.32,7.2A26.878,26.878,0,0,0,94.391,80.094Zm26.893,3.631-8.343,5.893a18.212,18.212,0,0,0-7.709,14.87v3.295L83.524,122.951l-16.039,11.19V130.35l8.343-5.893a18.215,18.215,0,0,0,7.709-14.87v-3.295l21.7-15.156,16.051-11.2Z" transform="translate(0 0)" fill="#e7d3c6"/>
  </g>
</svg>
