<svg xmlns="http://www.w3.org/2000/svg" width="32.34" height="32.354" viewBox="0 0 32.34 32.354">
  <g id="Group_20" data-name="Group 20" transform="translate(-1237.299 -8724.646)">
    <rect id="Rectangle_24" data-name="Rectangle 24" width="6.675" height="21.57" transform="translate(1237.943 8735.43)" fill="#e8d3c6"/>
    <path id="Path_32" data-name="Path 32" d="M374.437,647.064a3.98,3.98,0,1,0-3.95-3.98,3.965,3.965,0,0,0,3.95,3.98" transform="translate(866.812 8085.543)" fill="#e8d3c6"/>
    <path id="Path_33" data-name="Path 33" d="M383.689,655.949c0-3.032,1.4-4.839,4.069-4.839,2.455,0,3.634,1.735,3.634,4.839v11.322h6.645V653.614c0-5.777-3.275-8.571-7.848-8.571a7.523,7.523,0,0,0-6.5,3.564v-2.9h-6.4v21.569h6.4Z" transform="translate(871.602 8089.729)" fill="#e8d3c6"/>
  </g>
</svg>
