<svg id="noun-cart-1232530_1" data-name="noun-cart-1232530 1" xmlns="http://www.w3.org/2000/svg" width="29.111" height="29.287" viewBox="0 0 29.111 29.287">
  <path id="Path_3437" data-name="Path 3437" d="M23.031,39.512a3.166,3.166,0,1,0-.924,2.237A3.214,3.214,0,0,0,23.031,39.512Zm-5.017,0a1.849,1.849,0,1,1,.542,1.307A1.85,1.85,0,0,1,18.014,39.512Z" transform="translate(-10.007 -13.392)" fill="#60311b"/>
  <path id="Path_3438" data-name="Path 3438" d="M38.583,39.512a3.166,3.166,0,1,0-.924,2.237A3.159,3.159,0,0,0,38.583,39.512Zm-5.017,0a1.849,1.849,0,1,1,.542,1.307A1.85,1.85,0,0,1,33.566,39.512Z" transform="translate(-13.688 -13.392)" fill="#60311b"/>
  <path id="Path_3439" data-name="Path 3439" d="M13.789,8.468a2.647,2.647,0,0,0-2.6-2.2H8.59a.659.659,0,1,0,0,1.319h2.6a1.316,1.316,0,0,1,1.3,1.1l2.6,15.221a3.962,3.962,0,0,0,3.9,3.3H32.171a.659.659,0,0,0,0-1.319H18.982a2.647,2.647,0,0,1-1.7-.624,2.6,2.6,0,0,1-.9-1.578l-.165-.942H29.645a5.628,5.628,0,0,0,5.393-4.086l1.978-7.03a.66.66,0,0,0-.636-.836h-22.2Zm15.857,12.96H16l-.96-5.623H34.474l-.7,2.5a4.288,4.288,0,0,1-4.128,3.127Zm5.864-9.321-.659,2.379H14.813l-.406-2.379Z" transform="translate(-7.93 -6.272)" fill="#60311b"/>
</svg>
