<svg width="180" height="53" viewBox="0 0 180 53" fill="none" xmlns="http://www.w3.org/2000/svg">
<g clip-path="url(#clip0_1352_3998)">
<path d="M43.2618 42.1384C45.6749 42.1384 45.8573 41.8112 44.6314 39.6854C43.4645 37.6619 42.2894 35.6434 41.1061 33.6298C40.1842 32.0635 39.2421 30.5076 38.1836 28.7385C37.5437 29.4347 37.1683 29.9394 36.7065 30.3431C32.0354 34.4191 27.5239 38.6969 22.6202 42.476C18.3748 45.824 13.3986 48.1507 8.08531 49.2721C6.90754 49.5032 5.68963 49.4354 4.5457 49.0748C3.40177 48.7142 2.36927 48.0728 1.54497 47.2107C1.07522 46.726 0.613405 46.3127 0 45.7314C0.0881329 50.004 2.48358 52.7381 6.29445 52.9661C7.60916 53.0442 8.92861 52.9733 10.2269 52.7546C15.1932 51.9105 19.5329 49.6098 23.5288 46.7138C24.2643 46.1006 25.1751 45.7291 26.1345 45.6511C27.0939 45.5731 28.054 45.7925 28.8812 46.2787C32.6973 48.0678 36.6078 49.6794 40.5447 51.1979C41.4813 51.6443 42.534 51.7969 43.5611 51.6351C44.5882 51.4733 45.5405 51.0049 46.29 50.2929C46.3514 50.235 46.3956 50.1618 46.4179 50.081C46.4402 50.0002 46.4398 49.915 46.4167 49.8344C46.3936 49.7539 46.3486 49.6811 46.2867 49.6238C46.2248 49.5666 46.1483 49.5272 46.0653 49.5097C40.6848 48.3524 35.804 46.2631 31.7534 42.4413C35.6559 42.1393 39.4589 42.1428 43.2618 42.1384Z" fill="white"/>
<path d="M14.9227 5.58484C24.3106 9.53284 31.8239 15.8451 38.6454 23.9752L46.0794 12.6855C46.1335 12.6033 46.1641 12.5082 46.168 12.4102C46.1719 12.3122 46.149 12.215 46.1016 12.1289C46.0542 12.0427 45.9842 11.9707 45.8988 11.9206C45.8135 11.8705 45.716 11.844 45.6167 11.844H32.7493C37.5078 7.24065 43.5589 4.15715 50.1159 2.99432C49.2605 2.21749 48.2249 1.66002 47.1001 1.37097C45.9754 1.08192 44.7959 1.07012 43.6654 1.33661C38.9265 2.13857 34.4474 4.03786 30.5953 6.87879C28.7824 8.16492 27.2983 8.01784 25.4748 6.90227C22.4154 5.02087 19.2686 3.28184 16.0446 1.69081C13.0123 0.087427 9.49638 -0.383424 6.1411 0.364612C2.79205 1.15473 0.974752 3.67133 1.43392 6.90057C6.25391 3.45988 9.10061 3.13528 14.9227 5.58484V5.58484Z" fill="white"/>
<path d="M45.2703 23.4522C47.033 20.7546 48.7375 17.997 50.2366 15.1472C51.6714 12.2312 52.1493 8.94604 51.6036 5.74927C51.5952 5.68198 51.5638 5.61952 51.5145 5.57225C51.4653 5.52498 51.4012 5.49574 51.3328 5.48934C51.2645 5.48295 51.1959 5.49979 51.1386 5.53709C51.0812 5.57439 51.0385 5.62992 51.0175 5.69446C48.9509 12.0083 45.9584 17.989 42.1355 23.4461C40.8619 25.2691 40.9844 26.8851 42.2377 28.7246C45.7419 33.8665 48.6026 39.3216 49.8004 45.4912C49.9987 46.5128 50.1811 47.5379 50.3688 48.5621C50.383 48.6393 50.4274 48.7078 50.4924 48.7529C50.5574 48.798 50.6377 48.816 50.7161 48.8031C50.7814 48.792 50.841 48.7597 50.8856 48.7113C50.9301 48.6629 50.957 48.6012 50.962 48.536C50.9805 48.2906 51.0016 48.0461 51.0069 47.8007C51.1488 40.7836 48.4017 34.5844 45.2201 28.5636C44.2277 26.6945 44.1043 25.2326 45.2703 23.4522V23.4522Z" fill="white"/>
<path d="M11.11 24.7757C12.2258 24.7688 13.3451 24.8184 14.4591 24.7357C14.6887 24.7225 14.9133 24.6639 15.1197 24.5636C15.326 24.4633 15.5099 24.3232 15.6606 24.1516C15.8112 23.98 15.9255 23.7804 15.9968 23.5644C16.068 23.3485 16.0948 23.1207 16.0754 22.8944C16.1097 22.6796 16.0968 22.46 16.0375 22.2506C15.9782 22.0412 15.8739 21.8468 15.7318 21.6807C15.5897 21.5146 15.413 21.3807 15.2137 21.288C15.0145 21.1953 14.7974 21.1461 14.5772 21.1436C12.9441 21.0496 11.3013 21.1184 9.60297 21.1184V24.7731C10.1406 24.7766 10.6253 24.7783 11.11 24.7757V24.7757Z" fill="white"/>
<path d="M14.8275 28.7873C13.2243 28.7272 11.6168 28.7716 10.0119 28.7873C9.85739 28.816 9.70858 28.8692 9.57124 28.9448V32.8023C11.4502 32.8023 13.212 32.8406 14.9711 32.7831C15.3253 32.7931 15.6746 32.6992 15.9748 32.5134C16.275 32.3275 16.5128 32.058 16.658 31.7389C16.8213 31.43 16.9009 31.0845 16.8888 30.7362C16.8767 30.3879 16.7735 30.0486 16.5892 29.7514C16.4049 29.4541 16.1457 29.2091 15.837 29.0402C15.5282 28.8712 15.1805 28.7841 14.8275 28.7873V28.7873Z" fill="white"/>
<path d="M34.4388 24.4442C31.0122 21.3385 27.471 18.3425 24.2101 15.075C21.7988 12.6585 19.0208 11.9563 15.7493 11.9684C10.4984 11.9867 11.3542 11.9937 6.10408 11.9971V12.0033H2.2703C1.6801 12.0033 1.11407 12.2347 0.696736 12.6468C0.279401 13.0589 0.0449448 13.6177 0.0449448 14.2004V40.3572C0.0449448 40.5514 0.0837028 40.7438 0.158997 40.9233C0.234292 41.1027 0.344654 41.2658 0.48378 41.4032C0.622907 41.5406 0.788068 41.6495 0.969845 41.7239C1.15162 41.7982 1.34645 41.8365 1.54321 41.8365H6.10937V41.846L10.1635 41.8373C10.5601 41.8373 10.9567 41.8312 11.3533 41.8278H11.7411L13.6632 41.7277C13.6632 41.7277 17.8055 41.1055 19.5514 40.1683C25.3981 37.0305 30.2384 32.5873 34.8654 27.9136C36.2332 26.517 35.5845 25.4858 34.4388 24.4442V24.4442ZM21.1898 34.0719C20.8009 34.9652 20.1537 35.7253 19.3292 36.257C18.5047 36.7887 17.5396 37.0684 16.5549 37.0609C12.7951 37.2054 9.02569 37.1131 5.26065 37.1123C5.11887 37.0833 4.98204 37.0343 4.85436 36.9669V16.771C5.25889 16.7335 5.57882 16.6787 5.89874 16.6779C8.83709 16.6726 11.7754 16.6465 14.712 16.6953C15.5784 16.7143 16.4382 16.8492 17.2679 17.0964C21.5414 18.3608 21.6296 24.0178 19.0667 25.9539C18.8737 26.0993 18.6948 26.2629 18.433 26.4822C18.648 26.6257 18.7996 26.7476 18.9688 26.8363C21.8878 28.3696 22.2359 31.7641 21.1898 34.071V34.0719Z" fill="white"/>
<path d="M163.826 26.751C163.138 26.6882 162.45 26.864 161.88 27.2482C161.309 27.6325 160.892 28.201 160.701 28.856H167.009C166.803 28.1985 166.374 27.6309 165.794 27.2478C165.215 26.8648 164.52 26.6894 163.826 26.751Z" fill="white"/>
<path d="M177.362 12.2399H93.7999C80.7624 12.2399 61.3088 12.2286 59.4078 12.2156C57.713 12.2043 56.272 12.9056 55.0214 15.3221C53.3301 18.5896 51.4961 21.5874 49.7167 24.6913C49.358 25.1913 49.1476 25.7801 49.1091 26.3915C49.0707 27.003 49.2057 27.613 49.499 28.1529C51.8989 32.8266 54.4089 37.2689 57.4406 40.4076C58.3426 41.1241 59.381 41.6543 60.4944 41.967L61.4912 42.0671C61.5024 42.0676 61.5136 42.0676 61.5247 42.0671H61.6922C61.8975 42.0671 62.1037 42.0758 62.3091 42.0766H177.362C178.062 42.0766 178.732 41.8023 179.227 41.3141C179.721 40.8258 179.999 40.1636 179.999 39.4731V14.8339C179.997 14.1451 179.718 13.4853 179.223 12.9991C178.729 12.5129 178.06 12.2399 177.362 12.2399V12.2399ZM77.26 22.9692H68.1188V25.9105H75.5661V29.9472H68.1188V37.5021H63.3878V18.6427H77.2609L77.26 22.9692ZM84.3864 37.5013H80.0053V23.2555H84.3864V37.5013ZM82.1963 21.9581C81.8254 21.9678 81.4565 21.9028 81.1119 21.7671C80.7673 21.6315 80.4544 21.4279 80.192 21.169C79.9297 20.91 79.7236 20.6009 79.5862 20.2607C79.4488 19.9205 79.383 19.5562 79.3928 19.1901C79.383 18.8239 79.4488 18.4596 79.5862 18.1194C79.7236 17.7792 79.9297 17.4702 80.192 17.2112C80.4544 16.9522 80.7673 16.7486 81.1119 16.613C81.4565 16.4773 81.8254 16.4123 82.1963 16.422C82.5671 16.4123 82.9361 16.4773 83.2806 16.613C83.6252 16.7486 83.9382 16.9522 84.2005 17.2112C84.4629 17.4702 84.669 17.7792 84.8064 18.1194C84.9438 18.4596 85.0096 18.8239 84.9998 19.1901C85.0099 19.5564 84.9442 19.9208 84.8069 20.2613C84.6696 20.6017 84.4635 20.9109 84.2012 21.1701C83.9389 21.4293 83.6258 21.633 83.2811 21.7687C82.9364 21.9045 82.5673 21.9695 82.1963 21.9598V21.9581ZM101.969 37.5013H97.5878V30.1247C97.5878 27.8753 96.4782 26.9242 94.8425 26.9242C93.2067 26.9242 92.0971 27.8753 92.0971 30.1247V37.5073H87.716V30.1247C87.716 25.3387 90.5777 22.8866 94.8425 22.8866C99.1072 22.8866 101.969 25.3092 101.969 30.1247V37.5013ZM119.726 37.5013H115.696V35.137C115.325 35.9907 114.697 36.7113 113.898 37.2012C113.099 37.6912 112.167 37.9268 111.227 37.8763C110.274 37.8727 109.332 37.6775 108.458 37.3026C107.583 36.9277 106.796 36.3809 106.143 35.6956C105.49 35.0102 104.985 34.2007 104.659 33.3164C104.333 32.4321 104.193 31.4915 104.247 30.552C104.196 29.5288 104.362 28.5063 104.736 27.5508C105.111 26.5952 105.684 25.7278 106.419 25.0047C107.154 24.2817 108.034 23.7191 109.004 23.3533C109.973 22.9875 111.009 22.8267 112.045 22.8813C116.573 22.8813 119.726 25.8513 119.726 30.5233V37.5013ZM136.84 37.5013H132.459V30.1247C132.459 27.8753 131.35 26.9242 129.714 26.9242C128.078 26.9242 126.969 27.8753 126.969 30.1247V37.5073H122.588V30.1247C122.588 25.3387 125.449 22.8866 129.714 22.8866C133.979 22.8866 136.84 25.3092 136.84 30.1247V37.5013ZM146.888 33.8387C147.542 33.8667 148.189 33.6967 148.742 33.3514C149.295 33.0061 149.729 32.5021 149.984 31.9069H154.423C153.806 35.425 150.889 37.8763 146.888 37.8763C145.869 37.9252 144.851 37.7661 143.898 37.4089C142.945 37.0518 142.076 36.5042 141.347 35.8005C140.618 35.0967 140.044 34.252 139.66 33.3191C139.277 32.3862 139.092 31.3853 139.119 30.3788C139.092 29.3723 139.276 28.3713 139.66 27.4384C140.043 26.5054 140.618 25.6606 141.347 24.9569C142.076 24.2531 142.944 23.7055 143.898 23.3484C144.851 22.9913 145.869 22.8323 146.888 22.8813C150.889 22.8813 153.81 25.3327 154.423 28.8508H149.984C149.729 28.2556 149.295 27.7515 148.742 27.4063C148.189 27.061 147.542 26.891 146.888 26.919C146.432 26.907 145.979 26.9897 145.558 27.1618C145.136 27.3338 144.757 27.5913 144.443 27.9176C144.129 28.2439 143.888 28.6317 143.735 29.0558C143.583 29.48 143.522 29.931 143.558 30.3797C143.522 30.8284 143.583 31.2794 143.735 31.7036C143.887 32.1278 144.128 32.5157 144.442 32.842C144.756 33.1684 145.136 33.426 145.557 33.5982C145.978 33.7703 146.431 33.8531 146.887 33.8413L146.888 33.8387ZM171.508 31.5892H160.613C160.746 32.3161 161.149 32.9676 161.744 33.4159C162.338 33.8642 163.081 34.0767 163.826 34.0118C165.082 34.0118 166.016 33.7508 166.571 32.9737H171.099C170.164 35.9149 167.419 37.8763 163.826 37.8763C162.807 37.9252 161.79 37.7661 160.836 37.4089C159.883 37.0518 159.015 36.5042 158.285 35.8005C157.556 35.0967 156.982 34.252 156.598 33.3191C156.215 32.3862 156.031 31.3853 156.057 30.3788C156.031 29.3723 156.215 28.3713 156.598 27.4384C156.982 26.5054 157.556 25.6606 158.285 24.9569C159.014 24.2531 159.883 23.7055 160.836 23.3484C161.79 22.9913 162.807 22.8323 163.826 22.8813C164.84 22.8339 165.853 22.9947 166.801 23.3535C167.749 23.7123 168.611 24.2614 169.333 24.9661C170.055 25.6707 170.621 26.5156 170.995 27.4472C171.369 28.3789 171.544 29.3771 171.508 30.3788V31.5892Z" fill="white"/>
<path d="M112.016 26.9199C111.56 26.9079 111.107 26.9906 110.686 27.1626C110.265 27.3346 109.885 27.5921 109.571 27.9184C109.257 28.2447 109.016 28.6325 108.864 29.0567C108.711 29.4808 108.651 29.9319 108.686 30.3806C108.651 30.8292 108.711 31.2803 108.864 31.7044C109.016 32.1286 109.257 32.5164 109.571 32.8427C109.885 33.169 110.265 33.4265 110.686 33.5985C111.107 33.7705 111.56 33.8532 112.016 33.8413C112.472 33.8532 112.925 33.7705 113.346 33.5985C113.767 33.4265 114.147 33.169 114.461 32.8427C114.775 32.5164 115.016 32.1286 115.168 31.7044C115.321 31.2803 115.381 30.8292 115.346 30.3806C115.381 29.9319 115.321 29.4808 115.168 29.0567C115.016 28.6325 114.775 28.2447 114.461 27.9184C114.147 27.5921 113.767 27.3346 113.346 27.1626C112.925 26.9906 112.472 26.9079 112.016 26.9199V26.9199Z" fill="white"/>
</g>
<defs>
<clipPath id="clip0_1352_3998">
<rect width="180" height="53" fill="white"/>
</clipPath>
</defs>
</svg>
